<svg width="20" height="20" viewBox="0 0 20 20" fill="none" xmlns="http://www.w3.org/2000/svg">
<path d="M12.9648 17.4303C11.3749 18.0647 9.62339 18.1724 7.96773 17.7376C6.31206 17.3027 4.83954 16.3482 3.76657 15.0144C2.6936 13.6806 2.07676 12.0378 2.0067 10.3274C1.93665 8.61701 2.41707 6.92925 3.37737 5.51215C4.33767 4.09506 5.7272 3.02336 7.34176 2.45456C8.95631 1.88575 10.7107 1.84984 12.3472 2.35209C13.9837 2.85434 15.4159 3.86828 16.4334 5.24489C17.4509 6.6215 18 8.28818 18 10L18 11.1429C18 12.4052 16.9766 13.4286 15.7143 13.4286C14.4519 13.4286 13.4286 12.4052 13.4286 11.1429V6.57143M13.4286 10C13.4286 11.8935 11.8935 13.4286 10 13.4286C8.10645 13.4286 6.57143 11.8935 6.57143 10C6.57143 8.10645 8.10645 6.57143 10 6.57143C11.8935 6.57143 13.4286 8.10645 13.4286 10Z" stroke="#6B6B6B" stroke-width="2" stroke-linecap="round" stroke-linejoin="round"/>
</svg>
