<svg width="36" height="36" viewBox="0 0 36 36" fill="none" xmlns="http://www.w3.org/2000/svg">
<path d="M12.6667 26.3333H22.6667M12.6667 21.3333H22.6667M29.3333 13L21 13C20.0795 13 19.3333 12.2538 19.3333 11.3333V3M7.66667 33H27.6667C28.5871 33 29.3333 32.2538 29.3333 31.3333L29.3333 12.6531C29.3333 12.2332 29.1749 11.8289 28.8896 11.5208L21.4947 3.53432C21.1793 3.19366 20.7361 3 20.2718 3L7.66667 3C6.74619 3 6 3.7462 6 4.66667L6 31.3333C6 32.2538 6.74619 33 7.66667 33Z" stroke="#CECECE" stroke-width="3" stroke-linecap="round" stroke-linejoin="round"/>
</svg>
