<svg width="20" height="20" viewBox="0 0 20 20" fill="none" xmlns="http://www.w3.org/2000/svg">
<path d="M10.2222 10C11.2041 10 12 9.20406 12 8.22222C12 7.24038 11.2041 6.44444 10.2222 6.44444C9.24038 6.44444 8.44444 7.24038 8.44444 8.22222C8.44444 9.20406 9.24038 10 10.2222 10Z" stroke="#6B6B6B" stroke-width="2" stroke-linecap="round" stroke-linejoin="round"/>
<path d="M10.2222 18C10.2222 18 16.4444 13.6923 16.4444 8.15385C16.4444 6.52174 15.7889 4.95649 14.622 3.80242C13.4551 2.64835 11.8725 2 10.2222 2C8.57199 2 6.98934 2.64835 5.82245 3.80242C4.65555 4.95649 4 6.52174 4 8.15385C4 13.6923 10.2222 18 10.2222 18Z" stroke="#6B6B6B" stroke-width="2" stroke-linecap="round" stroke-linejoin="round"/>
</svg>
