<svg width="50" height="20" viewBox="0 0 50 20" fill="none" xmlns="http://www.w3.org/2000/svg">
<path d="M0.657341 20C0.464521 20 0.306759 19.9333 0.184056 19.8C0.0613519 19.6476 0 19.4762 0 19.2857V0.714287C0 0.504762 0.0613519 0.333334 0.184056 0.200001C0.306759 0.0666669 0.464521 0 0.657341 0H8.01956C9.47447 0 10.7366 0.247619 11.8058 0.742858C12.8926 1.21905 13.734 1.94286 14.33 2.91429C14.9435 3.88571 15.2503 5.11429 15.2503 6.6C15.2503 8.06667 14.9435 9.27619 14.33 10.2286C13.734 11.181 12.8926 11.8857 11.8058 12.3429C10.7366 12.8 9.47447 13.0286 8.01956 13.0286H4.89061V19.2857C4.89061 19.4762 4.8205 19.6476 4.68027 19.8C4.55756 19.9333 4.3998 20 4.20698 20H0.657341ZM4.81173 9.08571H7.88809C8.64184 9.08571 9.23783 8.87619 9.67605 8.45714C10.1318 8.0381 10.3597 7.4 10.3597 6.54286C10.3597 5.81905 10.1669 5.20952 9.78123 4.71429C9.39559 4.21905 8.76454 3.97143 7.88809 3.97143H4.81173V9.08571Z" fill="white"/>
<path d="M18.4261 20C18.2333 20 18.0755 19.9333 17.9528 19.8C17.8301 19.6476 17.7687 19.4762 17.7687 19.2857V0.714287C17.7687 0.504762 17.8301 0.333334 17.9528 0.200001C18.0755 0.0666669 18.2333 0 18.4261 0H25.2624C26.9803 0 28.444 0.304762 29.6535 0.914286C30.863 1.50476 31.792 2.38095 32.4406 3.54286C33.0892 4.68571 33.4397 6.10476 33.4923 7.8C33.5099 8.6381 33.5186 9.37143 33.5186 10C33.5186 10.6286 33.5099 11.3524 33.4923 12.1714C33.4222 13.9429 33.0716 15.4095 32.4406 16.5714C31.8271 17.7333 30.9243 18.6 29.7323 19.1714C28.5579 19.7238 27.1117 20 25.3939 20H18.4261ZM22.5016 15.8857H25.2624C26.0162 15.8857 26.6385 15.7619 27.1293 15.5143C27.6376 15.2476 28.0145 14.8381 28.2599 14.2857C28.5228 13.7333 28.6631 13.0095 28.6806 12.1143C28.7157 11.5619 28.7332 11.0667 28.7332 10.6286C28.7507 10.1905 28.7507 9.75238 28.7332 9.31429C28.7332 8.87619 28.7157 8.39048 28.6806 7.85714C28.6455 6.56191 28.33 5.61905 27.734 5.02857C27.1556 4.41905 26.2879 4.11429 25.131 4.11429H22.5016V15.8857Z" fill="white"/>
<path d="M37.2476 20C37.0548 20 36.897 19.9333 36.7743 19.8C36.6516 19.6476 36.5903 19.4762 36.5903 19.2857V0.714287C36.5903 0.504762 36.6516 0.333334 36.7743 0.200001C36.897 0.0666669 37.0548 0 37.2476 0H49.3427C49.5355 0 49.6932 0.0666669 49.8159 0.200001C49.9387 0.333334 50 0.504762 50 0.714287V3.6C50 3.80952 49.9387 3.98095 49.8159 4.11429C49.6932 4.24762 49.5355 4.31429 49.3427 4.31429H41.2179V8.51429H48.8168C49.0096 8.51429 49.1674 8.59048 49.2901 8.74286C49.4128 8.87619 49.4741 9.04762 49.4741 9.25714V12.1143C49.4741 12.3048 49.4128 12.4762 49.2901 12.6286C49.1674 12.7619 49.0096 12.8286 48.8168 12.8286H41.2179V19.2857C41.2179 19.4762 41.1566 19.6476 41.0339 19.8C40.9112 19.9333 40.7534 20 40.5606 20H37.2476Z" fill="white"/>
</svg>
