<svg width="20" height="20" viewBox="0 0 20 20" fill="none" xmlns="http://www.w3.org/2000/svg">
<path d="M6.12972 2H3.68421C2.75405 2 2 2.75405 2 3.68421C2 11.5906 8.4094 18 16.3158 18C17.246 18 18 17.246 18 16.3158V13.8703C18 13.1433 17.5574 12.4896 16.8825 12.2197L14.5397 11.2825C13.9334 11.04 13.2429 11.1494 12.7413 11.5674L12.1361 12.0718C11.4297 12.6604 10.3911 12.6133 9.74091 11.9631L8.03687 10.2591C7.38671 9.60893 7.33959 8.57027 7.92822 7.86391L8.43257 7.25869C8.8506 6.75706 8.95998 6.06662 8.71747 5.46034L7.78034 3.11753C7.51036 2.44258 6.85666 2 6.12972 2Z" stroke="#6B6B6B" stroke-width="2" stroke-linecap="round" stroke-linejoin="round"/>
</svg>
