<svg width="168" height="128" viewBox="0 0 168 128" fill="none" xmlns="http://www.w3.org/2000/svg">
<path d="M33.3806 12.8023C53.6355 3.55718 76.4579 -23.6532 76.6897 -23.9006V-23.8995C77.7963 -25.229 79.436 -25.998 81.1661 -26H145.328C146.875 -26 148.359 -25.3856 149.452 -24.2912C150.546 -23.1977 151.161 -21.7137 151.161 -20.1665V29.1057C151.145 34.8414 149.406 40.441 146.169 45.176C142.931 49.9111 138.345 53.5637 133.006 55.6601C121.805 59.9283 110.333 63.4454 98.6646 66.1879V96.4902C98.6677 101.642 96.4004 106.535 92.4659 109.862C88.5316 113.19 83.3307 114.614 78.2498 113.755C74.1059 112.958 70.3739 110.729 67.7079 107.457C65.042 104.187 63.6119 100.082 63.6676 95.8627V38.336C57.8514 41.7649 51.6303 44.4542 45.148 46.341C39.9299 47.9431 34.2593 46.9514 29.8945 43.673C25.4321 40.3957 22.8089 35.1807 22.8372 29.6442V28.7399V28.7409C22.8596 25.3477 23.8687 22.0347 25.7401 19.205C27.6128 16.3752 30.2666 14.1507 33.3802 12.8018L33.3806 12.8023ZM34.5035 29.6447C34.5066 31.4838 35.3763 33.2129 36.8511 34.3115C38.2528 35.3999 40.0918 35.7478 41.7945 35.2443C48.8525 33.1011 58.6947 29.1494 65.4031 22.4268C66.4935 21.3496 67.9653 20.7454 69.4983 20.7444C71.0312 20.7434 72.503 21.3466 73.5954 22.4227C74.6868 23.4989 75.3113 24.9626 75.3327 26.4956V95.8625C75.2808 97.316 75.7304 98.743 76.6072 99.9039C77.484 101.064 78.7331 101.887 80.145 102.235C81.8447 102.537 83.59 102.071 84.9134 100.963C86.2357 99.854 86.9996 98.2153 86.9986 96.4902V61.4929C86.9996 60.1462 87.4654 58.8411 88.3188 57.7995C89.1722 56.7579 90.3593 56.0428 91.6795 55.7763C104.313 53.0593 116.727 49.4089 128.82 44.855C131.973 43.6029 134.677 41.4321 136.581 38.6238C138.484 35.8144 139.499 32.4985 139.494 29.106V-14.3333H83.8476C77.7811 -7.39214 57.5996 14.5551 38.234 23.406C37.1629 23.8403 36.2414 24.5757 35.5792 25.5227C34.9171 26.4697 34.5417 27.5876 34.501 28.743L34.5035 29.6447Z" fill="#CECECE"/>
<path d="M18.7106 63.1994C19.8041 62.1039 21.2891 61.4885 22.8374 61.4885C24.3855 61.4885 25.8697 62.1039 26.9641 63.1994L34.5034 70.7376L42.0426 63.1983L42.0416 63.1993C43.5165 61.7244 45.6648 61.1487 47.6787 61.6888C49.6927 62.2279 51.2662 63.8015 51.8054 65.8156C52.3456 67.8296 51.7698 69.9778 50.2949 71.4526L42.7567 78.9908L50.296 86.5301H50.295C51.7699 88.005 52.3456 90.1533 51.8055 92.1672C51.2664 94.1812 49.6928 95.7546 47.6787 96.2939C45.6647 96.834 43.5165 96.2583 42.0417 94.7834L34.5034 87.2452L26.9642 94.7844V94.7834C25.4893 96.2583 23.341 96.8341 21.3271 96.2939C19.3131 95.7548 17.7397 94.1813 17.2004 92.1672C16.6603 90.1532 17.236 88.005 18.7109 86.5301L26.2491 78.9909L18.7109 71.4527C17.6154 70.3582 17 68.8741 17 67.3259C17 65.7778 17.6154 64.2928 18.7109 63.1991L18.7106 63.1994Z" fill="#CECECE"/>
<path d="M130.745 108.156C125.331 108.156 120.138 106.006 116.309 102.177C112.481 98.3486 110.33 93.1559 110.33 87.7414C110.33 82.327 112.481 77.1345 116.309 73.3056C120.138 69.4767 125.331 67.3266 130.745 67.3266C136.16 67.3266 141.352 69.4769 145.181 73.3056C149.01 77.1343 151.161 82.327 151.161 87.7414C151.161 93.1559 149.01 98.3484 145.181 102.177C141.352 106.006 136.16 108.156 130.745 108.156ZM130.745 78.9919C128.425 78.9919 126.2 79.9145 124.559 81.5552C122.918 83.1959 121.997 85.4215 121.997 87.7416C121.997 90.0618 122.918 92.2874 124.559 93.9281C126.2 95.5688 128.425 96.4914 130.745 96.4914C133.065 96.4914 135.291 95.5688 136.932 93.9281C138.574 92.2874 139.495 90.0618 139.495 87.7416C139.495 85.4215 138.574 83.1959 136.932 81.5552C135.291 79.9145 133.065 78.9919 130.745 78.9919Z" fill="#CECECE"/>
</svg>
