<svg width="168" height="128" viewBox="0 0 168 128" fill="none" xmlns="http://www.w3.org/2000/svg">
<path d="M14.554 21.0363L41.4945 33.8822V87.6979C41.4945 88.8367 41.8194 89.9744 42.3062 90.9499C43.1179 92.0887 43.9296 93.2264 44.9032 94.2019C47.0134 96.6406 49.4475 98.5927 52.2063 100.381C60.3212 105.748 70.8699 109 84.0166 109C97.1624 109 107.713 105.748 115.827 100.381C118.424 98.5927 120.858 96.6416 122.968 94.2019C123.942 93.2263 124.754 92.0875 125.565 90.9499C126.214 89.9744 126.539 88.8355 126.377 87.6979L126.376 33.8822L138.548 28.0281V57.1327C134.816 60.5482 134.491 66.2388 137.899 69.9786C141.308 73.7184 146.988 74.0439 150.72 70.6286C154.453 67.2131 154.778 61.5225 151.369 57.7827C151.207 57.4571 150.882 57.2949 150.72 57.1327V22.3361L153.479 21.035C156.563 19.5718 157.862 15.9943 156.4 12.9043C155.751 11.6033 154.777 10.6278 153.479 9.97787L91.9686 -19.2926C86.7745 -21.5691 80.9329 -21.5691 75.7388 -19.2926L14.3904 9.97787C11.3065 11.4411 10.171 15.1821 11.6315 18.1086C12.2802 19.4096 13.4157 20.3851 14.5523 21.0362L14.554 21.0363ZM114.529 85.7471L114.204 86.0727C112.744 87.6993 110.959 89.1626 109.173 90.3003C103.006 94.3657 94.7288 96.9678 84.0169 96.9678C73.305 96.9678 65.0281 94.529 58.8605 90.3003C57.0752 89.1615 55.29 87.6982 53.8296 86.0727L53.5047 85.7471L53.5058 39.7375L75.9032 50.4703C81.0972 52.7468 86.9388 52.7468 92.1329 50.4703L114.367 39.7375V85.7471H114.529ZM81.0959 -8.23414C82.8812 -8.8841 84.9913 -8.8841 86.7769 -8.23414L136.764 15.508L86.9392 39.4111C85.1538 40.0611 83.0437 40.0611 81.2582 39.4111L31.4329 15.5069L81.0959 -8.23414Z" fill="#CECECE"/>
</svg>
