<svg width="168" height="128" viewBox="0 0 168 128" fill="none" xmlns="http://www.w3.org/2000/svg">
<path d="M122.798 58.2567L151.138 12.9762C152.098 11.4433 152.266 9.54528 151.592 7.86824L140.256 -20.4321C139.866 -21.4122 139.21 -22.265 138.361 -22.8918C137.512 -23.5196 136.504 -23.8976 135.452 -23.9845C135.169 -24.0052 134.885 -24.0052 134.602 -23.9845C134.489 -23.9924 134.375 -23.9924 134.262 -23.9845H32.8028C32.7089 -23.9775 32.614 -23.9775 32.5201 -23.9845C31.9498 -23.9282 31.3913 -23.79 30.8615 -23.5738L30.5214 -23.3903C30.0391 -23.1632 29.5943 -22.8622 29.2039 -22.499L28.8213 -22.1308C28.4279 -21.7123 28.1038 -21.2346 27.8576 -20.7154C27.8576 -20.7154 27.7726 -20.5881 27.7439 -20.517L16.4075 7.78334H16.4085C15.7334 9.46031 15.9024 11.3583 16.8612 12.8913L45.2017 58.1718C45.5308 58.7088 45.9479 59.1865 46.4353 59.5873C42.3006 71.6874 44.2676 85.0348 51.7164 95.4327C59.1662 105.831 71.1828 112 83.9866 112C96.7905 112 108.806 105.831 116.257 95.4327C123.706 85.0353 125.673 71.6864 121.538 59.5873C122.028 59.2151 122.454 58.766 122.799 58.2567H122.798ZM83.9866 32.6171C79.7175 32.626 75.4781 33.3229 71.4315 34.683L56.596 9.97757H111.377L96.5411 34.683C92.4945 33.3229 88.2551 32.626 83.9861 32.6171H83.9866ZM118.165 -1.34327H49.8085L42.9784 -12.6637H124.994L118.165 -1.34327ZM27.9711 9.4106L33.9937 -5.58832L61.3119 39.7908C57.9108 42.1764 54.9029 45.0794 52.3991 48.3938L27.9711 9.4106ZM83.9866 100.538C76.4705 100.538 69.2619 97.5558 63.9471 92.2485C58.6322 86.9412 55.6461 79.7428 55.6461 72.2374C55.6461 64.732 58.6322 57.5336 63.9471 52.2262C69.2619 46.9189 76.4705 43.937 83.9866 43.937C91.5026 43.937 98.7112 46.9189 104.026 52.2262C109.341 57.5336 112.327 64.732 112.327 72.2374C112.327 79.7428 109.341 86.9412 104.026 92.2485C98.7112 97.5558 91.5026 100.538 83.9866 100.538ZM106.659 39.7905L133.978 -5.58858L140 9.41035L115.6 48.3941C113.087 45.0776 110.07 42.1748 106.658 39.791L106.659 39.7905Z" fill="#CECECE"/>
</svg>
