<svg width="168" height="128" viewBox="0 0 168 128" fill="none" xmlns="http://www.w3.org/2000/svg">
<path d="M134.999 -7.00026H129.332V-18.3327C129.332 -19.8358 128.735 -21.2776 127.673 -22.3399C126.61 -23.4031 125.169 -24 123.666 -24H44.3333C42.8302 -24 41.3894 -23.4031 40.3262 -22.3399C39.2639 -21.2776 38.667 -19.8358 38.667 -18.3327V-6.99925L32.9999 -7.00024C28.4919 -7.00024 24.1675 -5.20867 20.9795 -2.02069C17.7916 1.16729 16 5.49138 16 10.0006V15.6668C16 20.1758 17.7916 24.4991 20.9795 27.6871C24.1675 30.8758 28.4916 32.6666 32.9999 32.6666H40.1542C41.932 39.5146 45.2848 45.8519 49.9461 51.1742C54.6074 56.4976 60.4466 60.6567 67.0001 63.3228V77.9994H61.333C56.825 77.9994 52.5006 79.7909 49.3127 82.9789C46.1247 86.1669 44.3331 90.491 44.3331 95.0002V106.334V106.333C44.3331 107.836 44.93 109.278 45.9933 110.34C47.0555 111.403 48.4973 112 50.0004 112H118C119.503 112 120.945 111.403 122.007 110.34C123.07 109.278 123.667 107.836 123.667 106.333V95.0003C123.667 90.4912 121.876 86.1669 118.688 82.9789C115.5 79.7909 111.175 77.9994 106.667 77.9994H101V63.3378C107.565 60.6727 113.416 56.5125 118.088 51.1871C122.761 45.8628 126.127 39.5207 127.917 32.6667H135C139.508 32.6667 143.833 30.8761 147.021 27.6871C150.209 24.4991 152 20.176 152 15.6668V10.0007C152 5.49166 150.209 1.16731 147.021 -2.02067C143.833 -5.20865 139.509 -7.00021 135 -7.00021L134.999 -7.00026ZM33.0002 21.3329C31.4981 21.3329 30.0563 20.736 28.9941 19.6737C27.9308 18.6104 27.3339 17.1697 27.3339 15.6666V10.0005C27.3339 8.49744 27.9308 7.05559 28.9941 5.99335C30.0564 4.93008 31.4981 4.33321 33.0002 4.33321H38.6663L38.6673 21.3328L33.0002 21.3329ZM112.333 94.9989V100.665H55.6667V94.9989C55.6667 93.4959 56.2635 92.0541 57.3268 90.9918C58.3891 89.9286 59.8308 89.3317 61.3329 89.3317H106.666C108.168 89.3317 109.61 89.9286 110.672 90.9918C111.735 92.0541 112.332 93.4959 112.332 94.9989H112.333ZM89.6659 77.9983H78.3334V66.2687C82.0924 66.7973 85.907 66.7973 89.6659 66.2687V77.9983ZM83.9998 55.3323C74.9825 55.3323 66.3341 51.7502 59.9584 45.3735C53.5827 38.9978 50.0005 30.3501 50.0005 21.3321V-12.6676H118V21.3321C118 30.3501 114.418 38.9978 108.042 45.3735C101.666 51.7502 93.0178 55.3323 84.0008 55.3323H83.9998ZM140.666 15.666C140.666 17.169 140.069 18.6098 139.006 19.6731C137.944 20.7354 136.502 21.3322 135 21.3322H129.333V4.33263H135C136.502 4.33263 137.944 4.9295 139.006 5.99277C140.069 7.05506 140.666 8.49681 140.666 9.99989V15.666Z" fill="#CECECE"/>
</svg>
