<svg width="20" height="20" viewBox="0 0 20 20" fill="none" xmlns="http://www.w3.org/2000/svg">
<path d="M16.3659 3.625C14.6725 1.9375 12.4146 1 10.0314 1C5.07665 1 1.06272 5 1.06272 9.9375C1.06272 11.5 1.50174 13.0625 2.25436 14.375L1 19L5.76655 17.75C7.08362 18.4375 8.52613 18.8125 10.0314 18.8125C14.9861 18.8125 19 14.8125 19 9.875C18.9373 7.5625 18.0592 5.3125 16.3659 3.625ZM14.3589 13.125C14.1707 13.625 13.2927 14.125 12.8537 14.1875C12.4773 14.25 11.9756 14.25 11.4739 14.125C11.1603 14 10.7213 13.875 10.2195 13.625C7.96167 12.6875 6.51917 10.4375 6.39373 10.25C6.26829 10.125 5.45296 9.0625 5.45296 7.9375C5.45296 6.8125 6.01742 6.3125 6.20557 6.0625C6.39373 5.8125 6.6446 5.8125 6.83275 5.8125C6.95819 5.8125 7.14634 5.8125 7.27177 5.8125C7.39721 5.8125 7.58536 5.75 7.77352 6.1875C7.96167 6.625 8.40069 7.75 8.46341 7.8125C8.52613 7.9375 8.52613 8.0625 8.46341 8.1875C8.40069 8.3125 8.33798 8.4375 8.21254 8.5625C8.08711 8.6875 7.96167 8.875 7.89895 8.9375C7.77352 9.0625 7.64808 9.1875 7.77352 9.375C7.89895 9.625 8.33798 10.3125 9.02787 10.9375C9.90592 11.6875 10.5958 11.9375 10.8467 12.0625C11.0976 12.1875 11.223 12.125 11.3484 12C11.4739 11.875 11.9129 11.375 12.0383 11.125C12.1638 10.875 12.3519 10.9375 12.5401 11C12.7282 11.0625 13.8571 11.625 14.0453 11.75C14.2962 11.875 14.4216 11.9375 14.4843 12C14.547 12.1875 14.547 12.625 14.3589 13.125Z" fill="#6B6B6B"/>
</svg>
