<svg width="20" height="20" viewBox="0 0 20 20" fill="none" xmlns="http://www.w3.org/2000/svg">
<path d="M18.6291 5.97205C18.4217 5.20092 17.8137 4.59304 17.0427 4.3854C15.6341 4 9.9998 4 9.9998 4C9.9998 4 4.36567 4 2.95711 4.37079C2.20092 4.57821 1.5781 5.20103 1.37068 5.97205C1 7.3805 1 10.3014 1 10.3014C1 10.3014 1 13.2371 1.37068 14.6308C1.57832 15.4019 2.18609 16.0097 2.95722 16.2174C4.3805 16.6029 10 16.6029 10 16.6029C10 16.6029 15.6341 16.6029 17.0427 16.2321C17.8138 16.0246 18.4217 15.4167 18.6294 14.6457C18.9999 13.2371 18.9999 10.3163 18.9999 10.3163C18.9999 10.3163 19.0148 7.3805 18.6291 5.97205ZM8.20595 12.9999V7.60297L12.8912 10.3014L8.20595 12.9999Z" fill="#6B6B6B"/>
</svg>
