<svg width="20" height="20" viewBox="0 0 20 20" fill="none" xmlns="http://www.w3.org/2000/svg">
<path d="M10.0002 1.00868C6.31384 1.00868 2.81324 0.681008 1.47616 4.10985C0.923858 5.52602 1.00406 7.36522 1.00406 9.99873C1.00406 12.3097 0.929949 14.4816 1.47616 15.8866C2.8102 19.3175 6.33922 18.9888 9.99819 18.9888C13.5282 18.9888 17.1679 19.356 18.5212 15.8866C19.0746 14.4562 18.9933 12.6444 18.9933 9.99873C18.9933 6.48671 19.1873 4.21941 17.4826 2.51716C15.7567 0.792598 13.4226 1.00868 9.99616 1.00868H10.0002ZM9.19411 2.62875C16.8836 2.61658 17.8623 1.76241 17.3222 13.6284C17.1303 17.8252 13.9323 17.3647 10.0012 17.3647C2.83355 17.3647 2.62745 17.1597 2.62745 9.99467C2.62745 2.74643 3.19599 2.63281 9.19411 2.62672V2.62875ZM14.8024 4.12101C14.2064 4.12101 13.7232 4.60389 13.7232 5.19937C13.7232 5.79485 14.2064 6.27773 14.8024 6.27773C15.3983 6.27773 15.8816 5.79485 15.8816 5.19937C15.8816 4.60389 15.3983 4.12101 14.8024 4.12101ZM10.0002 5.38197C7.44889 5.38197 5.38082 7.44942 5.38082 9.99873C5.38082 12.548 7.44889 14.6145 10.0002 14.6145C12.5516 14.6145 14.6186 12.548 14.6186 9.99873C14.6186 7.44942 12.5516 5.38197 10.0002 5.38197ZM10.0002 7.00205C13.9648 7.00205 13.9699 12.9954 10.0002 12.9954C6.03667 12.9954 6.03058 7.00205 10.0002 7.00205Z" fill="#6B6B6B"/>
</svg>
