<svg width="66" height="66" viewBox="0 0 66 66" fill="none" xmlns="http://www.w3.org/2000/svg">
<path d="M10.5006 62.9994H55.5001C57.4889 62.9994 59.3967 62.2091 60.8032 60.8026C62.2096 59.3961 63 57.4885 63 55.4995V22.9999C63 21.0111 62.2096 19.1033 60.8032 17.6968C59.3967 16.2904 57.489 15.5 55.5001 15.5H45.5V10.4999C45.5 8.5111 44.71 6.60331 43.3031 5.19685C41.8967 3.79039 39.989 3 38.0001 3H27.9999C26.0111 3 24.1033 3.79039 22.6969 5.19685C21.2901 6.60331 20.5 8.51099 20.5 10.4999V15.5H10.4999C8.5111 15.5 6.60331 16.2904 5.19685 17.6968C3.79039 19.1033 3 21.011 3 22.9999V55.4995C3 57.4883 3.79039 59.3961 5.19685 60.8026C6.60331 62.2091 8.51099 62.9994 10.4999 62.9994H10.5006ZM55.5001 57.9994H10.5006C9.83793 57.9994 9.20183 57.7361 8.73319 57.267C8.2641 56.7983 8.00078 56.1623 8.00078 55.4996V37.9998H25.5006V45.4996C25.5006 46.1627 25.7639 46.7983 26.2326 47.2674C26.7017 47.7361 27.3373 47.9994 28.0004 47.9994H38.0005C38.6636 47.9994 39.2993 47.7361 39.7684 47.2674C40.237 46.7983 40.5003 46.1627 40.5003 45.4996V37.9998H58.0001V55.4996C58.0001 56.1622 57.7368 56.7983 57.2677 57.267C56.7991 57.7361 56.163 57.9994 55.5003 57.9994H55.5001ZM30.5004 37.9996H35.5004V42.9997H30.5004V37.9996ZM25.5003 10.4999C25.5003 9.83726 25.7636 9.20116 26.2323 8.73253C26.7014 8.26343 27.337 8.00011 28.0001 8.00011H38.0002C38.6633 8.00011 39.299 8.26343 39.7681 8.73253C40.2367 9.20118 40.5001 9.83725 40.5001 10.4999V15.5H25.5002L25.5003 10.4999ZM10.5005 20.5H55.5C56.1626 20.5 56.7987 20.7634 57.2674 21.2324C57.7365 21.7011 57.9998 22.3372 57.9998 22.9998V32.9999H8.00033V22.9998C8.00033 22.3372 8.26366 21.7011 8.73275 21.2324C9.2014 20.7634 9.83747 20.5 10.5001 20.5H10.5005Z" fill="#CECECE"/>
</svg>
