<svg width="66" height="66" viewBox="0 0 66 66" fill="none" xmlns="http://www.w3.org/2000/svg">
<path d="M55.5001 3H10.5C8.51117 3 6.60336 3.7904 5.19688 5.19688C3.7904 6.60335 3 8.51106 3 10.5V43.0001C3 44.9889 3.7904 46.8967 5.19688 48.3032C6.60336 49.7097 8.51106 50.5001 10.5 50.5001H23V58H18.0004C17.1071 58 16.2818 58.4765 15.835 59.2499C15.3885 60.0233 15.3885 60.9763 15.835 61.7501C16.2818 62.5235 17.1071 63 18.0004 63H48.0004C48.8937 63 49.7189 62.5235 50.1658 61.7501C50.6123 60.9763 50.6123 60.0232 50.1658 59.2499C49.719 58.4765 48.8937 58 48.0004 58H43.0007V50.5001H55.5008C57.4896 50.5001 59.3974 49.7097 60.8039 48.3032C62.2104 46.8967 63.0008 44.989 63.0008 43.0001V10.5C63.0008 8.51117 62.2104 6.60335 60.8039 5.19688C59.3974 3.7904 57.4897 3 55.5008 3H55.5001ZM8.00001 10.4999C8.00001 9.83723 8.26334 9.20113 8.73243 8.73249C9.20109 8.26339 9.83717 8.00006 10.4998 8.00006H55.4999C56.1626 8.00006 56.7987 8.26339 57.2673 8.73249C57.7364 9.20115 57.9998 9.83722 57.9998 10.4999V32.9999H7.99967L8.00001 10.4999ZM38.0001 58H27.9998V50.5001H38.0001V58ZM58.0001 43C58.0001 43.6626 57.7368 44.2987 57.2677 44.7674C56.799 45.2365 56.1629 45.4998 55.5003 45.4998H10.5002C9.83751 45.4998 9.20141 45.2365 8.73277 44.7674C8.26367 44.2987 8.00034 43.6626 8.00034 43V37.9998H58.0004L58.0001 43Z" fill="#CECECE"/>
</svg>
