<svg width="66" height="66" viewBox="0 0 66 66" fill="none" xmlns="http://www.w3.org/2000/svg">
<path d="M10.4993 63H52.9976C53.6607 63 54.2968 62.7367 54.7654 62.2676C55.234 61.799 55.4978 61.1629 55.4978 60.4998V50.5005H60.4977H60.4972C61.1603 50.5005 61.7964 50.2371 62.265 49.7681C62.7341 49.2994 62.9974 48.6634 62.9974 48.0003V35.5008C62.9974 34.8381 62.7341 34.2021 62.265 33.7334C61.7964 33.2644 61.1603 33.001 60.4972 33.001H55.4978V23.0012C55.4978 22.3386 55.234 21.7025 54.7654 21.2339C54.2968 20.7648 53.6607 20.5015 52.9976 20.5015H50.4979V10.5017C50.4979 9.83902 50.2346 9.20294 49.7655 8.73432C49.2969 8.26524 48.6609 8.00193 47.9978 8.00193H30.9304L24.4304 3.45189C23.8563 3.04994 23.1392 2.90739 22.4547 3.05954C21.7698 3.21168 21.1809 3.64458 20.8308 4.2519L18.6933 8.00197H11.75C9.42943 8.00197 7.20396 8.924 5.56296 10.5645C3.92206 12.2054 3 14.431 3 16.7515C3 17.0388 3.05624 17.3078 3.08109 17.5829H3.08152C3.0449 17.7206 3.01744 17.8606 3 18.0018V55.5003C3 57.4891 3.79037 59.3968 5.19679 60.8032C6.6032 62.2096 8.51083 63 10.4997 63H10.4993ZM57.9974 45.5007H46.7478C45.4082 45.5007 44.1705 44.7862 43.5004 43.6257C42.8304 42.4656 42.8304 41.0362 43.5004 39.876C44.1705 38.7156 45.4082 38.001 46.7478 38.001H57.9974V45.5007ZM46.7478 33.0012C43.6221 33.0012 40.7335 34.6687 39.1706 37.3759C37.6073 40.0832 37.6073 43.4186 39.1706 46.1258C40.7335 48.8326 43.6221 50.5005 46.7478 50.5005H50.4979V58.0001H10.4995C9.83688 58.0001 9.2008 57.7368 8.73218 57.2677C8.2631 56.7991 7.99979 56.163 7.99979 55.5004V24.6266C9.1686 25.1951 10.4498 25.4941 11.7499 25.5015H50.4983V33.0011L46.7478 33.0012ZM45.498 13.002V18.202L38.0734 13.002H45.498ZM23.8114 9.1208L40.0674 20.502H17.3061L23.8114 9.1208ZM11.7494 13.002H15.8368L11.5619 20.5016C10.2217 20.468 9.00193 19.7226 8.3611 18.5455C7.72026 17.3685 7.756 15.9391 8.45483 14.7955C9.15366 13.6519 10.4097 12.9684 11.7494 13.002Z" fill="#cecece"/>
</svg>
