<svg width="66" height="66" viewBox="0 0 66 66" fill="none" xmlns="http://www.w3.org/2000/svg">
<path d="M35.4998 18.0008C35.4998 19.3815 34.3808 20.5005 33.0001 20.5005C31.6194 20.5005 30.5003 19.3815 30.5003 18.0008C30.5003 16.6201 31.6194 15.5006 33.0001 15.5006C34.3808 15.5006 35.4998 16.6201 35.4998 18.0008Z" fill="#CECECE"/>
<path d="M5.50027 30.5006H10.5003L10.4999 49.6688L3.50008 59.0001C3.1269 59.4975 2.95252 60.1166 3.01137 60.7361C3.07023 61.3556 3.35753 61.9306 3.8179 62.3491C4.27827 62.7681 4.87815 63 5.50024 63H60.4994C61.1215 63 61.7214 62.7681 62.1818 62.3491C62.6421 61.9306 62.9294 61.3556 62.9883 60.7361C63.0471 60.1166 62.8728 59.4975 62.4996 59.0001L55.4998 49.6688V30.5006H60.4998H60.4994C61.1625 30.5006 61.7986 30.2368 62.2672 29.7682C62.7363 29.2995 62.9996 28.6635 62.9996 28.0004V20.5006C62.9996 20.052 62.8789 19.6117 62.6504 19.2254C62.4216 18.8396 62.0933 18.5222 61.6996 18.3068L34.2 3.30703C33.4519 2.89766 32.5477 2.89766 31.7996 3.30703L4.30003 18.3068C3.90636 18.5222 3.57807 18.8395 3.3492 19.2254C3.12076 19.6116 3 20.0519 3 20.5006V28.0004C3 28.6634 3.26332 29.2996 3.73241 29.7682C4.20106 30.2368 4.83715 30.5006 5.50027 30.5006ZM40.4997 48.0003H35.4997V30.5006H40.4997V48.0003ZM30.5001 48.0003H25.5001V30.5006H30.5001V48.0003ZM20.5 48.0003H15.5V30.5006H20.5V48.0003ZM10.5 58.0004L14.2501 53.0004H51.7496L55.4997 58.0004H10.5ZM50.4994 48.0003H45.4993V30.5006H50.4994V48.0003ZM8 21.9884L32.9996 8.35137L57.9993 21.9884V25.501H8V21.9884Z" fill="#CECECE"/>
</svg>
