<svg width="66" height="66" viewBox="0 0 66 66" fill="none" xmlns="http://www.w3.org/2000/svg">
<path d="M13.0001 63H52.9999C55.6524 63 58.1958 61.9463 60.0712 60.0712C61.9463 58.1957 63 55.6523 63 52.9999V13.0001C63 10.3476 61.9463 7.80422 60.0712 5.92878C58.1957 4.05368 55.6523 3 52.9999 3H13.0001C10.3476 3 7.80422 4.05372 5.92878 5.92878C4.05368 7.80434 3 10.3477 3 13.0001V52.9999C3 55.6524 4.05372 58.1958 5.92878 60.0712C7.80434 61.9463 10.3477 63 13.0001 63ZM52.9999 57.9999H13.0001C11.6739 57.9999 10.4022 57.4733 9.46437 56.5355C8.52654 55.5978 7.99998 54.326 7.99998 52.9998V27.9999H57.9998V52.9998C57.9998 54.326 57.4731 55.5977 56.5354 56.5355C55.5977 57.4734 54.3259 57.9999 52.9997 57.9999H52.9999ZM8.00009 13.0001C8.00009 11.6739 8.52674 10.4022 9.46449 9.46437C10.4022 8.52654 11.674 7.99998 13.0002 7.99998H53C54.3263 7.99998 55.5979 8.52663 56.5357 9.46437C57.4736 10.4021 58.0001 11.6739 58.0001 13.0001V22.9998H8.00032L8.00009 13.0001Z" fill="#CECECE"/>
<path d="M18.0001 15.5002C18.0001 16.8809 16.8805 18.0004 15.4998 18.0004C14.1192 18.0004 13.0001 16.8809 13.0001 15.5002C13.0001 14.1195 14.1192 13.0004 15.4998 13.0004C16.8805 13.0004 18.0001 14.1195 18.0001 15.5002Z" fill="#CECECE"/>
<path d="M28 15.5002C28 16.8809 26.8809 18.0004 25.5002 18.0004C24.1196 18.0004 23 16.8809 23 15.5002C23 14.1195 24.1196 13.0004 25.5002 13.0004C26.8809 13.0004 28 14.1195 28 15.5002Z" fill="#CECECE"/>
<path d="M38 15.5002C38 16.8809 36.8805 18.0004 35.4998 18.0004C34.1191 18.0004 33 16.8809 33 15.5002C33 14.1195 34.1191 13.0004 35.4998 13.0004C36.8805 13.0004 38 14.1195 38 15.5002Z" fill="#CECECE"/>
<path d="M42.2689 33.7311C41.6372 33.0994 40.716 32.8527 39.8529 33.0837C38.9897 33.3152 38.3157 33.9892 38.0841 34.8525C37.8531 35.7157 38.0998 36.6368 38.7315 37.2685L44.4628 43.0001L38.7315 48.7313C38.0998 49.363 37.8531 50.2842 38.0841 51.1474C38.3156 52.0106 38.9896 52.6845 39.8529 52.9161C40.7161 53.1472 41.6372 52.9004 42.2689 52.2687L49.7688 44.7689C50.2383 44.2998 50.5021 43.6637 50.5021 43.0001C50.5021 42.3366 50.2383 41.7001 49.7688 41.2314L42.2689 33.7311Z" fill="#CECECE"/>
<path d="M27.269 33.7311C26.7999 33.262 26.1638 32.9978 25.5003 32.9978C24.8367 32.9978 24.2003 33.262 23.7315 33.7311L16.2316 41.231V41.2314C15.7621 41.7001 15.4984 42.3366 15.4984 43.0002C15.4984 43.6637 15.7621 44.2998 16.2316 44.7689L23.7315 52.2688C24.3632 52.9005 25.2844 53.1472 26.1476 52.9162C27.0108 52.6847 27.6847 52.0107 27.9163 51.1474C28.1474 50.2842 27.9006 49.3631 27.2689 48.7314L21.5377 43.0002L27.2689 37.2689V37.2685C27.7384 36.7998 28.0022 36.1633 28.0022 35.4997C28.0022 34.8362 27.7384 34.2001 27.2689 33.731L27.269 33.7311Z" fill="#CECECE"/>
</svg>
