<svg width="66" height="66" viewBox="0 0 66 66" fill="none" xmlns="http://www.w3.org/2000/svg">
<path d="M25.5 48C25.5 49.3807 24.3805 50.5002 22.9998 50.5002C21.6191 50.5002 20.5 49.3807 20.5 48C20.5 46.6193 21.6191 45.5002 22.9998 45.5002C24.3805 45.5002 25.5 46.6193 25.5 48Z" fill="#CECECE"/>
<path d="M35.5 48C35.5 49.3807 34.3809 50.5002 33.0002 50.5002C31.6195 50.5002 30.5004 49.3807 30.5004 48C30.5004 46.6193 31.6195 45.5002 33.0002 45.5002C34.3809 45.5002 35.5 46.6193 35.5 48Z" fill="#CECECE"/>
<path d="M45.5 48C45.5 49.3807 44.3809 50.5002 43.0002 50.5002C41.6195 50.5002 40.5 49.3807 40.5 48C40.5 46.6193 41.6195 45.5002 43.0002 45.5002C44.3809 45.5002 45.5 46.6193 45.5 48Z" fill="#CECECE"/>
<path d="M25.5 38C25.5 39.3807 24.3805 40.4998 22.9998 40.4998C21.6191 40.4998 20.5 39.3807 20.5 38C20.5 36.6193 21.6191 35.4998 22.9998 35.4998C24.3805 35.4998 25.5 36.6193 25.5 38Z" fill="#CECECE"/>
<path d="M35.5 38C35.5 39.3807 34.3809 40.4998 33.0002 40.4998C31.6195 40.4998 30.5004 39.3807 30.5004 38C30.5004 36.6193 31.6195 35.4998 33.0002 35.4998C34.3809 35.4998 35.5 36.6193 35.5 38Z" fill="#CECECE"/>
<path d="M45.5 38C45.5 39.3807 44.3809 40.4998 43.0002 40.4998C41.6195 40.4998 40.5 39.3807 40.5 38C40.5 36.6193 41.6195 35.4998 43.0002 35.4998C44.3809 35.4998 45.5 36.6193 45.5 38Z" fill="#CECECE"/>
<path d="M58 55.5V10.5C58 8.51116 57.21 6.60335 55.8031 5.19688C54.3967 3.7904 52.489 3 50.5 3H15.5C13.5112 3 11.6033 3.7904 10.1969 5.19688C8.79007 6.60335 8 8.51105 8 10.5V55.5C8 57.4888 8.78997 59.3967 10.1969 60.8031C11.6033 62.2096 13.511 63 15.5 63H50.5C52.4888 63 54.3967 62.2096 55.8031 60.8031C57.2099 59.3967 58 57.489 58 55.5ZM13 55.5V10.5C13 9.83733 13.2633 9.20123 13.732 8.73259C14.2011 8.26349 14.8367 8.00017 15.4998 8.00017H50.4998C51.1629 8.00017 51.7986 8.26349 52.2677 8.73259C52.7364 9.20125 52.9997 9.83732 52.9997 10.5V55.5C52.9997 56.1627 52.7364 56.7988 52.2677 57.2674C51.7986 57.7365 51.163 57.9998 50.4998 57.9998H15.4998C14.8367 57.9998 14.2011 57.7365 13.732 57.2674C13.2633 56.7988 13 56.1627 13 55.5Z" fill="#CECECE"/>
<path d="M45.5 13H20.5C19.8369 13 19.2012 13.2633 18.7321 13.732C18.2635 14.2011 18.0002 14.8367 18.0002 15.4998V27.9998C18.0002 28.6629 18.2635 29.2991 18.7321 29.7677C19.2012 30.2364 19.8369 30.5001 20.5 30.5001H45.5C46.1631 30.5001 46.7988 30.2364 47.2679 29.7677C47.7365 29.299 47.9998 28.663 47.9998 27.9998V15.4998C47.9998 14.8367 47.7365 14.2011 47.2679 13.732C46.7988 13.2633 46.1631 13 45.5 13ZM43.0002 25.5H23.0002V18.0001H43.0002V25.5Z" fill="#CECECE"/>
</svg>
