<svg width="66" height="66" viewBox="0 0 66 66" fill="none" xmlns="http://www.w3.org/2000/svg">
<path d="M55.6872 15.5027H60.4993C61.8743 15.5027 62.999 14.3779 62.999 13.003C62.999 11.628 61.8743 10.5032 60.4993 10.5032L42.6245 10.5028C41.3123 5.19058 35.875 1.94051 30.5622 3.31561C26.9995 4.19057 24.2499 7.00294 23.375 10.5028H5.50025C4.12526 10.5028 3.0005 11.6275 3.0005 13.0025C3.0005 14.3775 4.12526 15.5023 5.50025 15.5023H10.3128L4.06243 32.2532C3.37492 34.1278 3 36.0656 3 38.0031C3 43.5031 7.49994 48.0032 13.0001 48.0032C18.5002 48.0032 23.0002 43.5032 23.0002 38.0031C23.0002 36.0657 22.6252 34.1283 21.9377 32.2532L15.6874 15.5034H23.3747C24.2501 19.0032 26.9996 21.7533 30.5 22.6283V48.003H28.0003C23.8752 48.003 20.5005 51.3777 20.5005 55.5027V58.0025H15.5004C14.1255 58.0025 13.0007 59.1273 13.0007 60.5022C13.0007 61.8772 14.1255 63.002 15.5004 63.002H50.5C51.875 63.002 52.9997 61.8772 52.9997 60.5022C52.9997 59.1273 51.875 58.0025 50.5 58.0025H45.4999V55.5027C45.4999 51.3777 42.1252 48.003 38.0001 48.003H35.5004L35.4995 22.6283C38.9998 21.7533 41.7494 19.0033 42.6244 15.5034H50.3117L44.0623 32.2532C43.3747 34.0654 42.9998 36.0033 42.9998 38.0031C42.9998 43.5031 47.4998 48.0032 52.9999 48.0032C58.5001 48.0032 63 43.5032 63 38.0031C63 36.0657 62.6251 34.1283 61.9376 32.2532L55.6872 15.5027ZM17.2502 34.065C17.7502 35.3148 17.9377 36.6899 18.0001 38.0025C18.0001 40.7526 15.7501 43.0026 13 43.0026C10.2499 43.0026 7.99997 40.7526 7.99997 38.0025C7.99997 36.6275 8.24977 35.3153 8.74982 34.065L13.0004 22.6276L17.2502 34.065ZM37.9999 53.0022C39.3749 53.0022 40.4997 54.127 40.4997 55.502V58.0017L25.4999 58.0021V55.5024C25.4999 54.1274 26.6246 53.0026 27.9996 53.0026L37.9999 53.0022ZM32.9999 18.0027C30.2498 18.0027 27.9998 15.7527 27.9998 13.0026C27.9998 10.2526 30.2498 8.00259 32.9999 8.00259C35.75 8.00259 37.9999 10.2526 37.9999 13.0026C37.9999 15.7527 35.75 18.0027 32.9999 18.0027ZM52.9996 43.0023C50.2495 43.0023 47.9996 40.7524 47.9996 38.0023C47.9996 36.6273 48.2494 35.3151 48.7494 34.0647L52.9996 22.6274L57.2493 34.0647C57.7494 35.3146 57.9368 36.6897 57.9992 38.0023C57.9996 40.7524 55.7497 43.0023 52.9996 43.0023Z" fill="#cecece"/>
</svg>
