<svg width="66" height="66" viewBox="0 0 66 66" fill="none" xmlns="http://www.w3.org/2000/svg">
<path d="M55.5003 15.5001H53.0001V10.5C53.0001 8.51115 52.2102 6.60334 50.8033 5.19687C49.3968 3.7904 47.4895 3 45.5001 3H20.5002C18.5109 3 16.6035 3.7904 15.1971 5.19687C13.7903 6.60334 13.0002 8.51104 13.0002 10.5V15.5001H10.5C8.51115 15.5001 6.60334 16.2905 5.19687 17.697C3.7904 19.1034 3 21.0111 3 23.0001V55.5C3 57.4888 3.7904 59.3967 5.19687 60.8031C6.60334 62.2096 8.51104 63 10.5 63H55.4999C57.4887 63 59.3965 62.2096 60.803 60.8031C62.2095 59.3967 62.9999 57.489 62.9999 55.5V23.0001C62.9999 21.0112 62.2095 19.1034 60.803 17.697C59.3965 16.2905 57.4888 15.5001 55.4999 15.5001H55.5003ZM55.5003 20.5002C56.163 20.5002 56.7991 20.7635 57.2678 21.2326C57.7368 21.7013 58.0002 22.3373 58.0002 23V38H53.0001V20.5L55.5003 20.5002ZM18.0004 10.5C18.0004 9.83732 18.2637 9.20122 18.7324 8.73258C19.2015 8.26348 19.8371 8.00016 20.5003 8.00016H45.5002C46.1633 8.00016 46.799 8.26348 47.2681 8.73258C47.7367 9.20124 48 9.83731 48 10.5V37.9999H43.0004C42.4764 38.0004 41.9658 38.1652 41.5408 38.4712C41.1157 38.7773 40.7979 39.2093 40.6314 39.7063L38.7 45.4998H27.3005L25.3691 39.7063C25.2026 39.2093 24.8848 38.7772 24.4597 38.4712C24.0346 38.1652 23.5241 38.0004 23.0001 37.9999H18.0005L18.0004 10.5ZM10.5001 20.5002H12.9999L13.0003 38.0002H8.0002V23.0002C8.0002 22.3375 8.26353 21.7014 8.73262 21.2328C9.20128 20.7637 9.83735 20.5004 10.5 20.5004L10.5001 20.5002ZM55.5 58.0001H10.5001C9.83743 58.0001 9.20133 57.7368 8.73269 57.2677C8.2636 56.799 8.00027 56.163 8.00027 55.5003V43.0003H21.2L23.1314 48.7938H23.1309C23.2975 49.2904 23.6157 49.7224 24.0408 50.0284C24.4654 50.3349 24.9759 50.4997 25.4999 50.5001H40.4999C41.0239 50.4997 41.5345 50.3349 41.9591 50.0284C42.3841 49.7224 42.7024 49.2903 42.8689 48.7938L44.7998 43.0003H57.9996V55.5003C57.9996 56.163 57.7363 56.7991 57.2672 57.2677C56.7985 57.7368 56.1624 58.0001 55.4998 58.0001H55.5Z" fill="#cecece"/>
<path d="M25.5004 20.5001H40.5004C41.3937 20.5001 42.2189 20.0236 42.6653 19.2502C43.1122 18.4768 43.1122 17.5237 42.6653 16.75C42.2189 15.9766 41.3936 15.5001 40.5004 15.5001H25.5004C24.6071 15.5001 23.7819 15.9766 23.3355 16.75C22.8886 17.5238 22.8886 18.4769 23.3355 19.2502C23.7819 20.0236 24.6072 20.5001 25.5004 20.5001Z" fill="white"/>
<path d="M25.5004 30.5001H40.5004C41.3937 30.5001 42.2189 30.0236 42.6653 29.2497C43.1122 28.4763 43.1122 27.5233 42.6653 26.75C42.2189 25.9766 41.3936 25.5001 40.5004 25.5001H25.5004C24.6071 25.5001 23.7819 25.9766 23.3355 26.75C22.8886 27.5234 22.8886 28.4764 23.3355 29.2497C23.7819 30.0236 24.6072 30.5001 25.5004 30.5001Z" fill="#cecece"/>
</svg>
