<svg width="66" height="66" viewBox="0 0 66 66" fill="none" xmlns="http://www.w3.org/2000/svg">
<path d="M30.4994 63C37.79 62.9917 44.7795 60.0916 49.9357 54.9364C55.091 49.7807 57.9911 42.7913 57.9993 35.5001C57.9993 34.8374 57.736 34.2013 57.2669 33.7326C56.7983 33.2635 56.1622 33.0002 55.4995 33.0002H32.9996V10.5003C32.9996 9.8376 32.7362 9.2015 32.2671 8.73286C31.7985 8.26376 31.1624 8.00044 30.4997 8.00044C23.206 8.00044 16.2118 10.8979 11.0544 16.0549C5.89743 21.2124 3 28.2067 3 35.5002C3 42.7939 5.89743 49.7881 11.0544 54.9454C16.2119 60.1025 23.2062 62.9999 30.4997 62.9999L30.4994 63ZM20.4992 49.0369L29.4116 57.9432C24.6909 57.7265 20.1612 56.0175 16.4741 53.0622L20.4992 49.0369ZM27.9991 41.537L41.537 55.0749C39.7565 56.0807 37.847 56.8396 35.862 57.331L24.0372 45.4996L27.9991 41.537ZM51.6486 43.1121L46.5364 37.9995H52.8614C52.6587 39.7451 52.2519 41.4611 51.649 43.1121H51.6486ZM39.4611 37.9995L48.7302 47.2681C48.9146 47.4451 49.1256 47.5925 49.3549 47.7058C48.2977 49.3189 47.0373 50.789 45.6051 52.0807L31.536 37.9993L39.4611 37.9995ZM27.9991 13.1368V34.4616L12.9366 49.524C9.57878 45.3139 7.84196 40.0388 8.0424 34.6569C8.24295 29.2748 10.367 24.1436 14.0291 20.1948C17.6908 16.2458 22.6477 13.7417 27.999 13.1366L27.9991 13.1368Z" fill="#CECECE"/>
<path d="M40.4994 3C39.8363 3 39.2006 3.26333 38.7315 3.73242C38.2629 4.20108 37.9995 4.83715 37.9995 5.50027V25.5002C37.9995 26.1633 38.2629 26.799 38.7315 27.2681C39.2006 27.7368 39.8363 28.0001 40.4994 28.0001H60.4993C61.1624 28.0001 61.7986 27.7368 62.2672 27.2681C62.7363 26.799 62.9996 26.1634 62.9996 25.5002C62.9996 19.5327 60.6289 13.8094 56.4096 9.59067C52.1898 5.37137 46.4669 3.00061 40.5 3.00061L40.4994 3ZM42.9991 23L42.9996 8.18191C46.738 8.72163 50.2012 10.4568 52.8724 13.1274C55.5432 15.7986 57.2783 19.2619 57.818 23.0003L42.9991 23Z" fill="#CECECE"/>
</svg>
