<svg width="36" height="36" viewBox="0 0 36 36" fill="none" xmlns="http://www.w3.org/2000/svg">
<path d="M30.7502 8.08338H29.3334V5.24999C29.3334 4.12299 28.8858 3.04189 28.0885 2.24489C27.2915 1.44789 26.2107 1 25.0834 1H10.9168C9.78952 1 8.70868 1.44789 7.91168 2.24489C7.11449 3.04189 6.66678 4.12292 6.66678 5.24999V8.08338H5.24999C4.12299 8.08338 3.04189 8.53128 2.24489 9.32828C1.44789 10.1253 1 11.2063 1 12.3334V30.75C1 31.877 1.44789 32.9581 2.24489 33.7551C3.04189 34.5521 4.12292 35 5.24999 35H30.7499C31.877 35 32.958 34.5521 33.755 33.7551C34.552 32.9581 34.9999 31.8771 34.9999 30.75V12.3334C34.9999 11.2064 34.552 10.1253 33.755 9.32828C32.958 8.53128 31.877 8.08338 30.7499 8.08338H30.7502ZM30.7502 10.9168C31.1257 10.9168 31.4862 11.066 31.7517 11.3318C32.0175 11.5974 32.1668 11.9578 32.1668 12.3333V20.8333H29.3334V10.9167L30.7502 10.9168ZM9.50024 5.24999C9.50024 4.87448 9.64946 4.51402 9.91503 4.24846C10.1808 3.98264 10.541 3.83342 10.9168 3.83342H25.0835C25.4592 3.83342 25.8194 3.98264 26.0852 4.24846C26.3508 4.51403 26.5 4.87448 26.5 5.24999V20.8333H23.6669C23.3699 20.8335 23.0807 20.9269 22.8398 21.1004C22.5989 21.2738 22.4188 21.5186 22.3244 21.8002L21.23 25.0832H14.7703L13.6758 21.8002C13.5815 21.5186 13.4014 21.2738 13.1605 21.1004C12.9196 20.9269 12.6303 20.8335 12.3334 20.8333H9.50026L9.50024 5.24999ZM5.25006 10.9168H6.66659L6.66684 20.8334H3.83345V12.3334C3.83345 11.9579 3.98267 11.5975 4.24849 11.3319C4.51406 11.0661 4.8745 10.9169 5.25002 10.9169L5.25006 10.9168ZM30.75 32.1667H5.25006C4.87454 32.1667 4.51409 32.0175 4.24853 31.7517C3.9827 31.4861 3.83349 31.1257 3.83349 30.7502V23.6668H11.3133L12.4078 26.9498H12.4075C12.5019 27.2312 12.6823 27.476 12.9231 27.6494C13.1637 27.8231 13.453 27.9165 13.75 27.9167H22.25C22.5469 27.9165 22.8362 27.8231 23.0768 27.6494C23.3177 27.476 23.498 27.2312 23.5924 26.9498L24.6866 23.6668H32.1664V30.7502C32.1664 31.1257 32.0172 31.4861 31.7514 31.7517C31.4858 32.0175 31.1254 32.1667 30.7499 32.1667H30.75Z" fill="#cecece"/>
<path d="M13.7502 10.9167H22.2502C22.7564 10.9167 23.224 10.6467 23.477 10.2084C23.7302 9.77018 23.7302 9.23012 23.477 8.79165C23.224 8.35339 22.7564 8.08338 22.2502 8.08338H13.7502C13.244 8.08338 12.7764 8.3534 12.5234 8.79165C12.2702 9.23016 12.2702 9.77022 12.5234 10.2084C12.7764 10.6467 13.2441 10.9167 13.7502 10.9167Z" fill="#cecece"/>
<path d="M13.7502 16.5834H22.2502C22.7564 16.5834 23.224 16.3133 23.477 15.8748C23.7302 15.4366 23.7302 14.8965 23.477 14.4583C23.224 14.02 22.7564 13.75 22.2502 13.75H13.7502C13.244 13.75 12.7764 14.0201 12.5234 14.4583C12.2702 14.8966 12.2702 15.4366 12.5234 15.8748C12.7764 16.3134 13.2441 16.5834 13.7502 16.5834Z" fill="#cecece"/>
</svg>
