<svg width="194" height="52" viewBox="0 0 194 52" fill="none" xmlns="http://www.w3.org/2000/svg">
<path d="M0 6.64307H6.33503L20.9796 25.886V6.64307H27.7535V37.9094H21.9121L6.77382 18.0351V37.9094H0V6.64307Z" fill="#D50032"/>
<path d="M45.8261 6.42346H52.1611L65.5442 37.9094H58.359L55.5069 30.9095H42.2884L39.4362 37.9094H32.443L45.8261 6.42346ZM53.0661 24.8154L48.9251 14.6861L44.784 24.8154H53.0661Z" fill="#D50032"/>
<path d="M70.2338 6.64307H84.5219C88.4984 6.64307 91.5699 7.76854 93.6268 9.79989C95.3545 11.5567 96.3144 13.9998 96.3144 17.0469C96.3144 22.0978 93.5993 25.2821 89.6228 26.737L97.2468 37.9094H89.2114L82.4376 27.8899H77.1173V37.9094H70.2338V6.64307ZM84.0831 21.8233C87.4289 21.8233 89.3486 20.039 89.3486 17.3214C89.3486 14.3842 87.2917 12.8469 83.946 12.8469H77.1173V21.8233H84.0831Z" fill="#D50032"/>
<path d="M110.904 22.0154L96.1772 0H104.213L115.045 16.7724L121.654 6.64306H129.47L119.022 21.9056L139.288 51.9092H131.253L114.853 27.1762L107.805 37.9094H100.017L110.904 22.0154Z" fill="black"/>
<path d="M131.28 22.2624C131.28 13.3684 138.274 6.09399 147.927 6.09399C157.58 6.09399 164.491 13.2861 164.491 22.2624C164.491 31.1565 157.498 38.4309 147.845 38.4309C138.191 38.4309 131.28 31.2388 131.28 22.2624ZM157.306 22.2624C157.306 16.9096 153.384 12.4351 147.845 12.4351C142.305 12.4351 138.466 16.8272 138.466 22.2624C138.466 27.6153 142.387 32.0898 147.927 32.0898C153.467 32.0898 157.306 27.7251 157.306 22.2624Z" fill="#D50032"/>
<path d="M167.974 32.6938L185.169 12.6822H168.523V6.64307H194V11.8587L176.805 31.8702H194V37.9094H167.974V32.6938Z" fill="#D50032"/>
<path d="M5.54534 52C4.5634 52 3.66642 51.7638 2.85443 51.2914C2.04243 50.8094 1.40039 50.1587 0.928302 49.3393C0.465653 48.5103 0.234329 47.5945 0.234329 46.5919C0.234329 45.5893 0.465653 44.6783 0.928302 43.8589C1.40039 43.0299 2.04243 42.3792 2.85443 41.9068C3.66642 41.4248 4.5634 41.1838 5.54534 41.1838C7.07491 41.1838 8.34012 41.7477 9.34095 42.8756L7.99549 44.206C7.34401 43.4251 6.53201 43.0347 5.55951 43.0347C4.9269 43.0347 4.35096 43.1841 3.83166 43.4829C3.31236 43.7721 2.90164 44.1867 2.5995 44.7265C2.3068 45.2664 2.16046 45.8882 2.16046 46.5919C2.16046 47.2956 2.3068 47.9174 2.5995 48.4572C2.90164 48.9971 3.31236 49.4164 3.83166 49.7153C4.35096 50.0045 4.9269 50.1491 5.55951 50.1491C6.62643 50.1491 7.51868 49.696 8.23626 48.7898L9.59588 50.1057C9.09546 50.7227 8.50063 51.195 7.81138 51.5228C7.13157 51.8409 6.37622 52 5.54534 52Z" fill="#D50032"/>
<path d="M22.9718 52C21.9804 52 21.0787 51.7638 20.2667 51.2914C19.4641 50.8094 18.8315 50.1539 18.3689 49.3249C17.9062 48.4958 17.6749 47.5848 17.6749 46.5919C17.6749 45.599 17.9062 44.688 18.3689 43.8589C18.8315 43.0299 19.4641 42.3792 20.2667 41.9068C21.0787 41.4248 21.9804 41.1838 22.9718 41.1838C23.9632 41.1838 24.8601 41.4248 25.6627 41.9068C26.4747 42.3792 27.112 43.0299 27.5747 43.8589C28.0373 44.688 28.2686 45.599 28.2686 46.5919C28.2686 47.5848 28.0373 48.4958 27.5747 49.3249C27.112 50.1539 26.4747 50.8094 25.6627 51.2914C24.8601 51.7638 23.9632 52 22.9718 52ZM22.9718 50.1491C23.5949 50.1491 24.1662 49.9997 24.6855 49.7008C25.2048 49.402 25.6108 48.9826 25.9035 48.4428C26.2056 47.9029 26.3567 47.286 26.3567 46.5919C26.3567 45.8978 26.2056 45.2808 25.9035 44.741C25.6108 44.2011 25.2048 43.7818 24.6855 43.4829C24.1662 43.1841 23.5949 43.0347 22.9718 43.0347C22.3486 43.0347 21.7774 43.1841 21.2581 43.4829C20.7482 43.7818 20.3422 44.2011 20.0401 44.741C19.7474 45.2808 19.6011 45.8978 19.6011 46.5919C19.6011 47.286 19.7474 47.9029 20.0401 48.4428C20.3422 48.9826 20.7482 49.402 21.2581 49.7008C21.7774 49.9997 22.3486 50.1491 22.9718 50.1491Z" fill="#D50032"/>
<path d="M37.1606 41.4151H39.0726V49.9177H43.3639V51.7686H37.1606V41.4151Z" fill="#D50032"/>
<path d="M52.0425 41.4151H53.9545V49.9177H58.2458V51.7686H52.0425V41.4151Z" fill="#D50032"/>
<path d="M66.9244 41.4151H73.3543V43.266H68.8364V45.6664H72.9011V47.5173H68.8364V49.9177H73.3543V51.7686H66.9244V41.4151Z" fill="#D50032"/>
<path d="M86.9681 52C85.9956 52 85.0986 51.7686 84.2771 51.3059C83.4651 50.8335 82.8184 50.1876 82.3368 49.3682C81.8553 48.5392 81.6145 47.6137 81.6145 46.5919C81.6145 45.57 81.8553 44.6494 82.3368 43.83C82.8184 43.0009 83.4651 42.3551 84.2771 41.8923C85.0986 41.42 85.9956 41.1838 86.9681 41.1838C87.7612 41.1838 88.4835 41.3284 89.1349 41.6176C89.7959 41.8971 90.3624 42.2972 90.8345 42.8178L89.5173 44.1337C89.1774 43.7673 88.7998 43.4926 88.3843 43.3094C87.9783 43.1263 87.5015 43.0347 86.9539 43.0347C86.3307 43.0347 85.7595 43.1841 85.2402 43.4829C84.7209 43.7721 84.3055 44.1915 83.9939 44.741C83.6917 45.2808 83.5407 45.8978 83.5407 46.5919C83.5407 47.286 83.6965 47.9078 84.008 48.4572C84.3196 48.9971 84.7351 49.4164 85.2544 49.7153C85.7831 50.0045 86.359 50.1491 86.9822 50.1491C87.9264 50.1491 88.7006 49.8647 89.3049 49.2959C89.4937 49.1224 89.659 48.9007 89.8006 48.6308C89.9422 48.3608 90.0461 48.0668 90.1122 47.7487H86.9256V46.0858H91.8967C91.9628 46.3557 91.9958 46.6594 91.9958 46.9968C91.9958 47.6812 91.8919 48.3175 91.6842 48.9055C91.4859 49.4936 91.1791 50.0093 90.7637 50.4528C90.3104 50.954 89.7628 51.3396 89.1208 51.6096C88.4787 51.8699 87.7612 52 86.9681 52Z" fill="#D50032"/>
<path d="M100.907 41.4151H107.336V43.266H102.819V45.6664H106.883V47.5173H102.819V49.9177H107.336V51.7686H100.907V41.4151Z" fill="#D50032"/>
</svg>
