<svg width="194" height="52" viewBox="0 0 194 52" fill="none" xmlns="http://www.w3.org/2000/svg">
<path d="M0 6.64307H6.33503L20.9796 25.886V6.64307H27.7535V37.9094H21.9121L6.77382 18.0351V37.9094H0V6.64307Z" fill="white"/>
<path d="M45.8261 6.42334H52.1611L65.5442 37.9093H58.359L55.5069 30.9093H42.2883L39.4362 37.9093H32.443L45.8261 6.42334ZM53.0661 24.8153L48.925 14.686L44.784 24.8153H53.0661Z" fill="white"/>
<path d="M70.2338 6.64307H84.5219C88.4984 6.64307 91.5699 7.76854 93.6267 9.79989C95.3545 11.5567 96.3143 13.9998 96.3143 17.0469C96.3143 22.0978 93.5993 25.2821 89.6228 26.737L97.2468 37.9094H89.2114L82.4376 27.8899H77.1173V37.9094H70.2338V6.64307ZM84.0831 21.8233C87.4288 21.8233 89.3486 20.039 89.3486 17.3214C89.3486 14.3842 87.2917 12.8469 83.9459 12.8469H77.1173V21.8233H84.0831Z" fill="white"/>
<path d="M110.904 22.0154L96.1772 0H104.213L115.045 16.7724L121.654 6.64306H129.47L119.022 21.9056L139.288 51.9092H131.253L114.853 27.1762L107.805 37.9094H100.017L110.904 22.0154Z" fill="white"/>
<path d="M131.28 22.2627C131.28 13.3687 138.274 6.09424 147.927 6.09424C157.58 6.09424 164.491 13.2863 164.491 22.2627C164.491 31.1567 157.498 38.4311 147.845 38.4311C138.191 38.4311 131.28 31.2391 131.28 22.2627ZM157.306 22.2627C157.306 16.9098 153.384 12.4353 147.845 12.4353C142.305 12.4353 138.466 16.8275 138.466 22.2627C138.466 27.6156 142.387 32.09 147.927 32.09C153.467 32.09 157.306 27.7254 157.306 22.2627Z" fill="white"/>
<path d="M167.974 32.6938L185.169 12.6822H168.523V6.64307H194V11.8587L176.805 31.8702H194V37.9094H167.974V32.6938Z" fill="white"/>
<path d="M5.54539 51.9998C4.56344 51.9998 3.66647 51.7636 2.85448 51.2913C2.04248 50.8093 1.40044 50.1585 0.928348 49.3391C0.465699 48.5101 0.234375 47.5943 0.234375 46.5917C0.234375 45.5891 0.465699 44.6781 0.928348 43.8587C1.40044 43.0297 2.04248 42.379 2.85448 41.9066C3.66647 41.4246 4.56344 41.1836 5.54539 41.1836C7.07496 41.1836 8.34016 41.7475 9.34099 42.8754L7.99554 44.2058C7.34405 43.4249 6.53206 43.0345 5.55955 43.0345C4.92695 43.0345 4.351 43.1839 3.8317 43.4828C3.3124 43.772 2.90168 44.1865 2.59955 44.7263C2.30685 45.2662 2.1605 45.888 2.1605 46.5917C2.1605 47.2954 2.30685 47.9172 2.59955 48.4571C2.90168 48.9969 3.3124 49.4163 3.8317 49.7151C4.351 50.0043 4.92695 50.1489 5.55955 50.1489C6.62648 50.1489 7.51873 49.6958 8.2363 48.7896L9.59592 50.1055C9.09551 50.7225 8.50067 51.1949 7.81142 51.5226C7.13161 51.8407 6.37627 51.9998 5.54539 51.9998Z" fill="white"/>
<path d="M22.9718 51.9998C21.9804 51.9998 21.0787 51.7636 20.2667 51.2913C19.4642 50.8093 18.8316 50.1537 18.3689 49.3247C17.9063 48.4956 17.675 47.5846 17.675 46.5917C17.675 45.5988 17.9063 44.6878 18.3689 43.8587C18.8316 43.0297 19.4642 42.379 20.2667 41.9066C21.0787 41.4246 21.9804 41.1836 22.9718 41.1836C23.9632 41.1836 24.8602 41.4246 25.6627 41.9066C26.4747 42.379 27.1121 43.0297 27.5747 43.8587C28.0373 44.6878 28.2687 45.5988 28.2687 46.5917C28.2687 47.5846 28.0373 48.4956 27.5747 49.3247C27.1121 50.1537 26.4747 50.8093 25.6627 51.2913C24.8602 51.7636 23.9632 51.9998 22.9718 51.9998ZM22.9718 50.1489C23.595 50.1489 24.1662 49.9995 24.6855 49.7006C25.2048 49.4018 25.6108 48.9825 25.9035 48.4426C26.2056 47.9028 26.3567 47.2858 26.3567 46.5917C26.3567 45.8976 26.2056 45.2806 25.9035 44.7408C25.6108 44.201 25.2048 43.7816 24.6855 43.4828C24.1662 43.1839 23.595 43.0345 22.9718 43.0345C22.3487 43.0345 21.7774 43.1839 21.2581 43.4828C20.7483 43.7816 20.3423 44.201 20.0401 44.7408C19.7474 45.2806 19.6011 45.8976 19.6011 46.5917C19.6011 47.2858 19.7474 47.9028 20.0401 48.4426C20.3423 48.9825 20.7483 49.4018 21.2581 49.7006C21.7774 49.9995 22.3487 50.1489 22.9718 50.1489Z" fill="white"/>
<path d="M37.1606 41.415H39.0726V49.9175H43.3639V51.7684H37.1606V41.415Z" fill="white"/>
<path d="M52.0425 41.415H53.9545V49.9175H58.2458V51.7684H52.0425V41.415Z" fill="white"/>
<path d="M66.9244 41.415H73.3543V43.2659H68.8364V45.6662H72.9011V47.5172H68.8364V49.9175H73.3543V51.7684H66.9244V41.415Z" fill="white"/>
<path d="M86.9681 51.9998C85.9956 51.9998 85.0986 51.7684 84.2772 51.3057C83.4652 50.8334 82.8184 50.1875 82.3369 49.3681C81.8554 48.539 81.6146 47.6136 81.6146 46.5917C81.6146 45.5698 81.8554 44.6492 82.3369 43.8298C82.8184 43.0008 83.4652 42.3549 84.2772 41.8921C85.0986 41.4198 85.9956 41.1836 86.9681 41.1836C87.7612 41.1836 88.4835 41.3282 89.135 41.6174C89.7959 41.897 90.3624 42.297 90.8345 42.8176L89.5174 44.1335C89.1775 43.7671 88.7998 43.4924 88.3844 43.3092C87.9784 43.1261 87.5016 43.0345 86.9539 43.0345C86.3308 43.0345 85.7595 43.1839 85.2402 43.4828C84.7209 43.772 84.3055 44.1913 83.9939 44.7408C83.6918 45.2806 83.5407 45.8976 83.5407 46.5917C83.5407 47.2858 83.6965 47.9076 84.0081 48.4571C84.3197 48.9969 84.7351 49.4163 85.2544 49.7151C85.7831 50.0043 86.3591 50.1489 86.9823 50.1489C87.9264 50.1489 88.7007 49.8645 89.3049 49.2958C89.4938 49.1222 89.659 48.9005 89.8006 48.6306C89.9423 48.3607 90.0461 48.0666 90.1122 47.7485H86.9256V46.0856H91.8967C91.9628 46.3555 91.9958 46.6592 91.9958 46.9966C91.9958 47.681 91.892 48.3173 91.6843 48.9053C91.486 49.4934 91.1791 50.0091 90.7637 50.4526C90.3105 50.9539 89.7629 51.3395 89.1208 51.6094C88.4788 51.8697 87.7612 51.9998 86.9681 51.9998Z" fill="white"/>
<path d="M100.907 41.415H107.336V43.2659H102.819V45.6662H106.883V47.5172H102.819V49.9175H107.336V51.7684H100.907V41.415Z" fill="white"/>
</svg>
